<svg xmlns="http://www.w3.org/2000/svg" viewBox="0 0 32 32">
  <defs>
    <radialGradient id="bgGrad" cx="40%" cy="30%" r="70%">
      <stop offset="0%" stop-color="#1e3a5f"/>
      <stop offset="100%" stop-color="#070e1a"/>
    </radialGradient>
    <linearGradient id="planeGrad" x1="0%" y1="0%" x2="60%" y2="100%">
      <stop offset="0%" stop-color="#7dd3fc"/>
      <stop offset="45%" stop-color="#38bdf8"/>
      <stop offset="100%" stop-color="#0369a1"/>
    </linearGradient>
    <linearGradient id="shim" x1="0%" y1="0%" x2="0%" y2="100%">
      <stop offset="0%" stop-color="#ffffff" stop-opacity="0.12"/>
      <stop offset="50%" stop-color="#ffffff" stop-opacity="0"/>
    </linearGradient>
    <filter id="shadow" x="-20%" y="-20%" width="140%" height="140%">
      <feDropShadow dx="0" dy="1" stdDeviation="1" flood-color="#000" flood-opacity="0.6"/>
    </filter>
  </defs>
  <rect width="32" height="32" rx="6" fill="url(#bgGrad)"/>
  <rect width="32" height="32" rx="6" fill="none" stroke="#1e4976" stroke-width="0.8" opacity="0.6"/>
  <rect width="32" height="32" rx="6" fill="url(#shim)"/>
  <g transform="translate(16,16) rotate(90) scale(0.32) translate(-39.5,-35)" filter="url(#shadow)">
    <path fill="url(#planeGrad)" d="m 39.323759,0.18838233 -1.277647,1.13170037 -1.280616,2.8325907 -0.761311,3.0697325 -0.286615,1.7948893 0.02936,10.2526718 -8.659221,7.449928 0.148914,-4.110239 -0.471561,-0.52054 -3.023888,0.04197 -0.426625,0.802456 -0.05368,3.68518 0.05715,0.999645 0.412606,0.560328 0.377975,6.59e-4 0.09317,0.756118 -7.853467,5.986674 0.287192,-2.12562 -0.13737,-2.504333 -0.376821,-0.662118 -2.929475,0.08938 -0.331472,0.424645 0.135123,5.43177 0.350033,0.293633 0.569884,-0.0067 0.468428,0.395498 -0.414677,0.360548 -12.9487314,9.663054 -0.6634364,1.132773 -0.2856257,1.227925 0.13481409,3.968991 0.33081111,-0.04667 -0.0444432,-1.606479 13.2394545,-5.882779 0.328584,1.228998 0.47247,8.25e-4 0.380944,-1.70023 2.74255,-1.270885 0.517325,1.371068 0.472551,-0.04643 0.239369,-1.794971 3.073361,-1.317555 0.47016,1.32374 0.425305,-0.04651 0.144792,-1.747892 2.884291,-1.270638 0.47082,0.945764 0.283483,4.95e-4 0.143966,-1.27542 3.07303,-1.128566 0.328832,1.087257 0.377976,6.6e-4 0.0021,-1.22842 4.632509,-1.314833 0.325451,3.024381 0.517245,1.418315 0.08014,8.221136 0.135806,3.402027 0.609015,2.977629 0.516169,2.032526 -10.455758,8.108253 -1.136896,1.69891 -0.617757,2.030547 0.09193,1.464822 13.52145,-5.031842 0.799324,2.22201 0.897693,0.0016 0.712992,-2.455604 13.598793,4.79569 -0.04428,-1.700973 -0.610996,-1.843702 -1.178453,-1.561211 -10.758366,-8.003538 0.950793,-3.352884 0.433963,-5.007434 -0.08047,-8.032146 0.477251,-1.40315 0.217673,-3.173165 4.318945,1.136028 0.328502,1.465233 0.424974,0.142482 0.144131,-1.369914 3.068911,1.233782 0.187336,0.945269 0.519306,0.23714 0.04898,-0.992104 3.210896,1.09229 0.185688,1.890206 0.377646,0.189648 0.428193,-1.700147 3.257566,1.423097 0.138606,1.795633 0.519717,9.07e-4 0.333203,-1.416833 2.974662,1.091877 0.32743,1.890453 0.519715,9.07e-4 0.191545,-1.464324 13.408155,5.740299 0.04436,1.653726 0.330811,-0.04667 -0.08649,-4.583119 -0.753229,-1.56047 -13.401644,-9.472807 0.142155,-0.235989 0.284311,-0.47197 v 0 l 0.66154,-0.0461 0.147182,-3.118053 -0.04304,-2.409675 -0.424232,-0.567707 -3.212876,0.04164 -0.190226,0.708374 0.134239,4.29972 -7.880429,-5.636159 0.09573,-0.708539 0.472388,0.04808 0.285212,-0.991692 -0.08699,-4.299636 -0.376491,-0.851105 -3.071217,0.08913 -0.190308,0.755621 0.08781,3.827168 L 43.165018,19.093912 42.899351,8.8880762 42.57184,7.0448801 41.86866,3.8780975 40.503117,1.2298768 Z"/>
  </g>
</svg>
