<svg xmlns="http://www.w3.org/2000/svg" viewBox="0 0 32 32">
  <rect width="32" height="32" rx="7" fill="#0c1220"/>
  <!-- subtle radar ring -->
  <circle cx="16" cy="16" r="11.5" fill="none" stroke="#38bdf8" stroke-width="0.6" opacity="0.25"/>
  <!-- airplane top-view pointing NE, rotate -45deg -->
  <g transform="translate(16,16) rotate(-45)" fill="#38bdf8">
    <!-- fuselage -->
    <path d="M0-9.5 C1.8-9.5 2.2-7 2.2-3.5 L2.2 6.5 C2.2 7.5 1.2 8 0 8 C-1.2 8 -2.2 7.5 -2.2 6.5 L-2.2-3.5 C-2.2-7 -1.8-9.5 0-9.5Z"/>
    <!-- main wings -->
    <path d="M2.2-1.5 L12 3.5 L11.5 5.5 L0 2.2 L-11.5 5.5 L-12 3.5 L-2.2-1.5Z"/>
    <!-- tail fins -->
    <path d="M1.8 5.5 L5.5 9.5 L5 10.8 L0 8.5 L-5 10.8 L-5.5 9.5 L-1.8 5.5Z"/>
  </g>
</svg>
